<mxfile host="65bd71144e">
    <diagram id="as2slQckAo29rZJoSzQH" name="Page-1">
        <mxGraphModel dx="1242" dy="471" grid="1" gridSize="10" guides="1" tooltips="1" connect="1" arrows="1" fold="1" page="1" pageScale="1" pageWidth="850" pageHeight="1100" math="0" shadow="0">
            <root>
                <mxCell id="0"/>
                <mxCell id="1" parent="0"/>
                <mxCell id="6" style="edgeStyle=none;shape=link;html=1;exitX=0.5;exitY=0;exitDx=0;exitDy=0;exitPerimeter=0;" edge="1" parent="1" source="2" target="4">
                    <mxGeometry relative="1" as="geometry"/>
                </mxCell>
                <mxCell id="2" value="" style="fontColor=#0066CC;verticalAlign=top;verticalLabelPosition=bottom;labelPosition=center;align=center;html=1;outlineConnect=0;fillColor=#CCCCCC;strokeColor=#6881B3;gradientColor=none;gradientDirection=north;strokeWidth=2;shape=mxgraph.networks.virtual_pc;" vertex="1" parent="1">
                    <mxGeometry x="180" y="270" width="115" height="85" as="geometry"/>
                </mxCell>
                <mxCell id="7" style="edgeStyle=none;shape=link;html=1;" edge="1" parent="1" source="3" target="4">
                    <mxGeometry relative="1" as="geometry"/>
                </mxCell>
                <mxCell id="8" style="edgeStyle=none;shape=link;html=1;" edge="1" parent="1" source="3" target="5">
                    <mxGeometry relative="1" as="geometry"/>
                </mxCell>
                <mxCell id="3" value="" style="sketch=0;outlineConnect=0;fontColor=#232F3E;gradientColor=none;fillColor=#4D27AA;strokeColor=none;dashed=0;verticalLabelPosition=bottom;verticalAlign=top;align=center;html=1;fontSize=12;fontStyle=0;aspect=fixed;pointerEvents=1;shape=mxgraph.aws4.customer_gateway;" vertex="1" parent="1">
                    <mxGeometry x="360" y="120" width="78" height="78" as="geometry"/>
                </mxCell>
                <mxCell id="4" value="" style="sketch=0;outlineConnect=0;fontColor=#232F3E;gradientColor=none;fillColor=#4D27AA;strokeColor=none;dashed=0;verticalLabelPosition=bottom;verticalAlign=top;align=center;html=1;fontSize=12;fontStyle=0;aspect=fixed;pointerEvents=1;shape=mxgraph.aws4.customer_gateway;" vertex="1" parent="1">
                    <mxGeometry x="198.5" y="120" width="78" height="78" as="geometry"/>
                </mxCell>
                <mxCell id="5" value="" style="fontColor=#0066CC;verticalAlign=top;verticalLabelPosition=bottom;labelPosition=center;align=center;html=1;outlineConnect=0;fillColor=#CCCCCC;strokeColor=#6881B3;gradientColor=none;gradientDirection=north;strokeWidth=2;shape=mxgraph.networks.virtual_server;" vertex="1" parent="1">
                    <mxGeometry x="344" y="252.5" width="110" height="120" as="geometry"/>
                </mxCell>
                <mxCell id="9" value="router1 (pfsense)&lt;br&gt;Ad1: WAN - 10.0.2.6/30&lt;br&gt;Ad2: LAN - 192.168.2.1/24&lt;br&gt;&lt;br&gt;IPSec VPN PSK to router0" style="text;html=1;strokeColor=none;fillColor=none;align=center;verticalAlign=middle;whiteSpace=wrap;rounded=0;" vertex="1" parent="1">
                    <mxGeometry x="438" y="80" width="160" height="130" as="geometry"/>
                </mxCell>
                <mxCell id="10" value="router0 (pfsense)&lt;br&gt;Ad1: WAN - 10.0.2.5/30&lt;br&gt;Ad2: LAN - 192.168.1.1/24&lt;br&gt;&lt;br&gt;IPSec VPN PSK to router1" style="text;html=1;strokeColor=none;fillColor=none;align=center;verticalAlign=middle;whiteSpace=wrap;rounded=0;" vertex="1" parent="1">
                    <mxGeometry x="48.5" y="80" width="160" height="130" as="geometry"/>
                </mxCell>
                <mxCell id="11" value="pc0 (kali)&lt;br&gt;Ad1: LAN - 192.168.1.2/24 (dynamic)" style="text;html=1;strokeColor=none;fillColor=none;align=center;verticalAlign=middle;whiteSpace=wrap;rounded=0;" vertex="1" parent="1">
                    <mxGeometry x="10" y="252.5" width="170" height="117.5" as="geometry"/>
                </mxCell>
                <mxCell id="12" value="server0 (ubuntu)&lt;br&gt;Ad1: LAN - 192.168.2.2/24 (dynamic)" style="text;html=1;strokeColor=none;fillColor=none;align=center;verticalAlign=middle;whiteSpace=wrap;rounded=0;" vertex="1" parent="1">
                    <mxGeometry x="454" y="253.5" width="170" height="117.5" as="geometry"/>
                </mxCell>
            </root>
        </mxGraphModel>
    </diagram>
</mxfile>